<svg xmlns="http://www.w3.org/2000/svg" viewBox="6 6 26 24" width="32" height="32">
  <defs>
    <linearGradient x1="0%" y1="7.7%" x2="100%" y2="99.7%" id="mark">
      <stop stop-color="#B39FFF" offset="0%"/>
      <stop stop-color="#6A1ED2" offset="100%"/>
    </linearGradient>
  </defs>
  <g transform="translate(-3, -4)">
    <path d="M14.6642,27.8868 C14.3982,28.3707 13.7866,28.5514 13.3316,28.2383 C11.79,27.1776 10.5709,25.7011 9.82245,23.9715 C8.94107,21.9347 8.76226,19.6627 9.31417,17.5131 C9.86608,15.3635 11.1174,13.4587 12.8709,12.0984 C14.6245,10.7382 16.7807,10 18.9999954,10 C21.2193,10 23.3755,10.7382 25.1291,12.0985 C26.8826,13.4587 28.1339,15.3635 28.6858,17.5131 C29.2377,19.6627 29.0589,21.9347 28.1775,23.9715 C27.4291,25.7011 26.21,27.1776 24.6684,28.2383 C24.2134,28.5514 23.6018,28.3707 23.3358,27.8868 L19.9595,21.7453 C19.7489,21.3622 19.9277,20.8778 20.1013,20.4766 C20.2071,20.2322 20.2285,19.9595 20.1623,19.7016 C20.0961,19.4436 19.9459,19.215 19.7355,19.0518 C19.5251,18.8886 19.2663,18.8 18.9999954,18.8 C18.7337,18.8 18.4749,18.8886 18.2645,19.0518 C18.0541,19.215 17.9039,19.4436 17.8377,19.7016 C17.7715,19.9595 17.7929,20.2322 17.8987,20.4766 C18.0723,20.8778 18.2511,21.3622 18.0405,21.7453 L14.6642,27.8868 Z" fill="url(#mark)"/>
  </g>
</svg>
